# xmcd CD database file
#
# Track frame offsets:
#	150
#	16066
#	26383
#	38914
#	52358
#	65545
#	87018
#	103894
#	115010
#	132249
#	145204
#	160677
#	174047
#	190178
#	202164
#	212401
#	221990
#	231387
#	241549
#	254928
#	266531
#	278331
#	288115
#	301463
#
# Disc length: 4154 seconds
#
# Revision: 0
# Processed by: cddbd v1.5.2PL0 Copyright (c) Steve Scherf et al.
# Submitted via: CDex 1.70beta2
#
DISCID=59103818
DTITLE=Peter Banjo Meyer - Buddy Wachter - Duellin' Banjos
DYEAR=1900
DGENRE=Jazz
TTITLE0=Peter Banjo Meyer and Buddy Wachter - That's A Plenty
TTITLE1=Peter Banjo Meyer and Buddy Wachter - Calliope Rag
TTITLE2=Peter Banjo Meyer and Buddy Wachter - Si Tu Vois Ma Mere
TTITLE3=Peter Banjo Meyer and Buddy Wachter - Hopak
TTITLE4=Peter Banjo Meyer and Buddy Wachter - Alabam Jubilee
TTITLE5=Peter Banjo Meyer and Buddy Wachter - Creole Love Song
TTITLE6=Peter Banjo Meyer and Buddy Wachter - Balalaika Medley
TTITLE7=Peter Banjo Meyer and Buddy Wachter - Chesapeake Bay
TTITLE8=Peter Banjo Meyer - Foster Medley
TTITLE9=Peter Banjo Meyer - Duellin' Banjos
TTITLE10=Peter Banjo Meyer - Limehouse Blues
TTITLE11=Peter Banjo Meyer - Sweet Sue, Just You
TTITLE12=Peter Banjo Meyer - Market Place
TTITLE13=Peter Banjo Meyer - Dardanella
TTITLE14=Peter Banjo Meyer - Londonderry Air
TTITLE15=Peter Banjo Meyer and Klaus Buhe - Get Going
TTITLE16=Peter Banjo Meyer and Klaus Buhe - Hot Stuff Patrol
TTITLE17=Peter Banjo Meyer and Klaus Buhe - Turkey In The Straw
TTITLE18=Peter Banjo Meyer and Donald Hirst - Waiting For The Rob. E. Lee
TTITLE19=Peter Banjo Meyer and Donald Hirst - In The Good Old Summertime
TTITLE20=Peter Banjo Meyer and Donald Hirst - Shine On Harvest Moon
TTITLE21=Peter Banjo Meyer and Donald Hirst - O Susanna
TTITLE22=Peter Banjo Meyer and Donald Hirst - Birth Of The Blues
TTITLE23=Peter Banjo Meyer and Donald Hirst - Chinatown, My Chinatown
EXTD=
EXTT0=
EXTT1=
EXTT2=
EXTT3=
EXTT4=
EXTT5=
EXTT6=
EXTT7=
EXTT8=
EXTT9=
EXTT10=
EXTT11=
EXTT12=
EXTT13=
EXTT14=
EXTT15=
EXTT16=
EXTT17=
EXTT18=
EXTT19=
EXTT20=
EXTT21=
EXTT22=
EXTT23=
PLAYORDER=
